# Blender v2.78 (sub 0) OBJ File: 'hexagonWithFoot.blend'
# www.blender.org
mtllib hexagonWithFoot.mtl
o Circle
v 0.000000 0.000000 -5.000000
v -4.330127 0.000000 2.500000
v 4.330127 0.000000 2.500000
v 0.000000 5.000000 -1.500000
v -1.299038 5.000000 0.750000
v 1.299038 5.000000 0.750000
v -0.649519 5.000000 -0.375000
v 0.000000 5.000000 0.750000
v 0.649519 5.000000 -0.375000
v -6.495192 5.000000 -3.750000
v -0.000001 5.000000 -7.500000
v 0.000001 5.000000 7.500000
v -6.495191 5.000000 3.750000
v 6.495191 5.000000 -3.750001
v 6.495191 5.000000 3.750000
v -6.495192 7.000000 -3.750000
v -0.000001 7.000000 -7.500000
v 0.000001 7.000000 7.500000
v -6.495191 7.000000 3.750000
v 6.495191 7.000000 -3.750001
v 6.495191 7.000000 3.750000
vn 0.8174 0.3304 -0.4719
vn 0.0000 0.3304 0.9439
vn -0.8174 0.3304 -0.4719
vn 0.0000 -1.0000 0.0000
vn 0.5000 0.0000 -0.8660
vn 0.0000 1.0000 0.0000
vn 0.5000 0.0000 0.8660
vn -1.0000 0.0000 0.0000
vn -0.5000 0.0000 -0.8660
vn -0.5000 0.0000 0.8660
vn 1.0000 0.0000 -0.0000
usemtl None
s off
f 4//1 9//1 1//1
f 6//2 8//2 3//2
f 5//3 7//3 2//3
f 2//4 1//4 3//4
f 5//4 10//4 7//4
f 5//4 12//4 13//4
f 4//4 14//4 9//4
f 4//4 10//4 11//4
f 6//4 14//4 15//4
f 6//4 12//4 8//4
f 11//5 20//5 14//5
f 19//6 18//6 16//6
f 15//7 18//7 12//7
f 13//8 16//8 10//8
f 10//9 17//9 11//9
f 12//10 19//10 13//10
f 16//6 20//6 17//6
f 16//6 18//6 20//6
f 18//6 21//6 20//6
f 14//11 21//11 15//11
f 3//1 1//1 9//1
f 9//1 6//1 3//1
f 2//2 3//2 8//2
f 8//2 5//2 2//2
f 1//3 2//3 7//3
f 7//3 4//3 1//3
f 5//4 13//4 10//4
f 5//4 8//4 12//4
f 4//4 11//4 14//4
f 4//4 7//4 10//4
f 6//4 9//4 14//4
f 6//4 15//4 12//4
f 11//5 17//5 20//5
f 15//7 21//7 18//7
f 13//8 19//8 16//8
f 10//9 16//9 17//9
f 12//10 18//10 19//10
f 14//11 20//11 21//11
